<?xml version="1.0" encoding="UTF-8" standalone="no"?>
<svg
        xmlns:dc="http://purl.org/dc/elements/1.1/"
        xmlns:cc="http://creativecommons.org/ns#"
        xmlns:rdf="http://www.w3.org/1999/02/22-rdf-syntax-ns#"
        xmlns="http://www.w3.org/2000/svg"
        viewBox="0 0 393.33334 318.66666"
        height="318.66666"
        width="393.33334"
        xml:space="preserve"
        id="svg2"
        version="1.1"><metadata
     id="metadata8"><rdf:RDF><cc:Work
         rdf:about=""><dc:format>image/svg+xml</dc:format><dc:type
        rdf:resource="http://purl.org/dc/dcmitype/StillImage"/></cc:Work></rdf:RDF></metadata>
    <defs
            id="defs6"/>
    <g
            transform="matrix(1.3333333,0,0,-1.3333333,0,318.66667)"
            id="g10"><g
       transform="scale(0.1)"
       id="g12"><path
         id="path14"
         style="fill:#3d9fc1;fill-opacity:1;fill-rule:evenodd;stroke:none"
         d="m 2416.17,1569.57 c -43.36,35 -119.69,33.98 -229.02,-3.01 -109.34,-36.64 -238.17,-102.34 -386.49,-196.99 13.01,-5.35 25,-10.82 36.02,-16.48 230.66,144.33 379.49,195.15 446.48,152.5 39.65,-42.35 13.01,-131.53 -80,-267.5 -93,-136.02 -232.5,-291.371 -418.51,-466.02 -1.33,-1.332 -2.5,-2.5 -3.48,-3.519 -1.33,-0.973 -2.5,-1.992 -3.51,-2.961 -13.01,-12.039 -25.98,-24.031 -38.99,-36.02 -3.01,-2.66 -6.01,-5.351 -9.02,-8.011 -15.31,-13.981 -30.98,-28.008 -46.99,-41.989 -4.65,-3.98 -9.14,-7.851 -13.48,-11.48 -135.35,-117.699 -265,-218.68 -389.02,-303.012 -0.32,-0.348 -0.67,-0.508 -0.98,-0.508 -0.35,-0.351 -0.66,-0.511 -1.02,-0.511 -12.65,-8.981 -25.35,-17.649 -38,-25.969 -0.67,-0.36 -1.33,-0.668 -2,-1.02 -12.65,-8.32 -25.15,-16.48 -37.5,-24.488 -0.35,0 -0.66,-0.16 -1.01,-0.512 -0.31,-0.351 -0.67,-0.511 -0.98,-0.511 C 962.66,162.23 810.512,109.059 742.148,152.07 701.48,195.738 730.16,287.891 828.16,428.551 c 97.66,140.668 243.32,300.668 437,480 -8.01,9.027 -15.16,18.359 -21.49,28.008 C 1020.31,729.57 855,542.23 747.66,374.57 640,206.559 613.828,93.5508 669.18,35.5898 712.809,0.589844 789.648,1.71875 899.648,39.0586 1009.65,76.0508 1139.34,142.422 1288.67,238.09 c 3.32,1.992 6.84,4.14 10.51,6.48 0.98,1.02 2.15,1.84 3.48,2.5 35.35,23.012 71.17,47.34 107.5,73.012 9.68,6.637 19.49,13.469 29.49,20.508 11.68,8.629 23.51,17.301 35.51,25.969 1.68,1.019 3.36,2.191 5,3.519 10.66,8.012 21.32,15.973 31.99,23.981 0.35,0.351 0.66,0.671 1.01,1.019 0.36,0 0.51,0 0.51,0 -0.35,-0.348 -0.66,-0.508 -1.01,-0.508 5.35,3.981 10.66,8.008 16.01,11.989 32.66,24.691 65.31,50.351 98.01,76.992 33.98,27.347 68.16,55.668 102.5,85 13.32,11.679 26.64,23.359 40,35 30.66,26.679 60.31,53.359 88.98,80 3.32,3.359 6.68,6.527 10,9.539 0,-0.36 0,-0.512 0,-0.512 214.65,202.344 373.32,385.002 476.02,548.012 102.3,162.65 126.33,272.3 71.99,328.98" /><path
            id="path16"
            style="fill:#3d9fc1;fill-opacity:1;fill-rule:evenodd;stroke:none"
            d="m 1375.66,1052.58 c 0,-0.35 0,-0.51 0,-0.51 2,-3.98 3.99,-8.16 6.02,-12.5 0.31,-0.35 0.66,-0.82 0.98,-1.48 2.34,-4.03 4.84,-8.01 7.5,-12.04 0.35,-0.66 0.86,-1.32 1.52,-1.99 0.66,-0.66 1.33,-1.48 1.99,-2.5 105.98,90.35 208.48,170.35 307.5,240 -13.67,4.03 -28.36,7.5 -44.02,10.51 -92.31,-65.66 -186.13,-138.83 -281.49,-219.49"/><path
            id="path18"
            style="fill:#3d9fc1;fill-opacity:1;fill-rule:evenodd;stroke:none"
            d="m 1754.65,1001.56 c -105,91.99 -208.48,175 -310.47,249.03 -11.02,-6.02 -20.66,-13.01 -29.02,-21.02 101.68,-73.67 206.01,-157.5 313,-251.48 217,-192.699 382,-366.68 495,-522.039 113.01,-155.313 148.17,-256.641 105.51,-303.981 -53.67,-37.34 -169.02,-6.332 -346.01,93.012 -176.64,98.977 -374.85,243.828 -594.5,434.488 -216.99,192.66 -381.99,366.84 -495,522.5 -113,155.35 -148.16,256.48 -105.5,303.52 32.34,25.66 93.512,20.97 183.512,-14.03 89.998,-35.31 198.008,-94.84 323.988,-178.47 8.67,7.96 17.85,15.46 27.5,22.5 -160.32,106.64 -300.16,181.48 -419.5,224.49 -119.332,43.01 -202.14,46.17 -248.512,9.49 -57.968,-61.99 -26.128,-183.83 95.512,-365.51 121.68,-181.64 305.5,-381.83 551.52,-600.509 248.98,-215.973 476.99,-377.301 683.98,-483.981 206.68,-106.6794 345.36,-134.6481 416.02,-83.9802 57.97,61.9922 26.13,183.8202 -95.51,365.4612 -121.68,181.679 -305.51,381.84 -551.52,600.509"/><path
            id="path20"
            style="fill:#72bce5;fill-opacity:1;fill-rule:evenodd;stroke:none"
            d="m 1974.18,795.078 c -8.36,-8.359 -16.68,-16.527 -25,-24.488 221.33,-225.668 351.64,-401.18 390.98,-526.531 34.02,-83.977 33.16,-142.809 -2.5,-176.477 -51.64,-40 -148.68,-29.6914 -290.98,30.9688 -142.03,60.6682 -305.35,159.5392 -490,296.5272 199.34,-149.027 375.98,-256.988 530,-324.0272 153.63,-66.64064 258.48,-78.46877 314.49,-35.461 49.65,50 34.85,144.3322 -44.49,282.9612 -79.34,139.027 -206.84,297.859 -382.5,476.527"/><path
            id="path22"
            style="fill:#72bce5;fill-opacity:1;fill-rule:evenodd;stroke:none"
            d="m 692.66,1512.07 c 36.988,30.35 100,32.34 189.02,6.02 100,-20 237.81,-88.36 413.48,-205 8.67,7.96 17.85,15.46 27.5,22.5 -160.32,106.64 -300.16,181.48 -419.5,224.49 -119.332,43.01 -202.14,46.17 -248.512,9.49 -50.308,-51.02 -34.136,-147.5 48.512,-289.49 82.352,-142.35 214.18,-304.689 395.51,-486.99 -166.682,169.332 -287.65,319.64 -363.01,450.97 -75.66,131.33 -90,220.67 -43,268.01"/><path
            id="path24"
            style="fill:#72bce5;fill-opacity:1;fill-rule:evenodd;stroke:none"
            d="m 1754.18,1001.56 c -105,91.68 -208.52,174.69 -310.51,249.03 -11.01,-6.37 -20.66,-13.36 -29.02,-21.02 101.68,-73.98 206.01,-157.85 313.01,-251.48 48.67,-42.699 95.15,-85.199 139.49,-127.5 8.36,8.32 16.68,16.64 25,25 -43.99,41.64 -90,83.629 -137.97,125.97"/><path
            id="path26"
            style="fill:#72bce5;fill-opacity:1;fill-rule:evenodd;stroke:none"
            d="m 732.66,67.582 c -35.672,33.668 -36.488,92.5 -2.5,176.477 39.328,125.351 169.68,300.863 391.01,526.531 -8.36,7.961 -16.68,16.129 -25,24.488 C 920.512,616.41 793.012,457.578 713.672,318.551 634.34,179.922 619.488,85.5898 669.18,35.5898 725.16,-7.41797 830,4.41016 983.672,71.0508 1137.66,138.09 1314.34,246.051 1513.67,395.078 1328.98,258.09 1165.66,159.219 1023.67,98.5508 881.68,37.8906 784.648,27.582 732.66,67.582"/><path
            id="path28"
            style="fill:#72bce5;fill-opacity:1;fill-rule:evenodd;stroke:none"
            d="m 1265.66,908.09 c -8,8.98 -15.35,18.32 -21.99,27.961 -21.99,-20.313 -43.67,-40.66 -65,-60.973 8.32,-8.359 16.64,-16.68 25,-25 20.31,19.332 40.98,38.672 61.99,58.012"/><path
            id="path30"
            style="fill:#72bce5;fill-opacity:1;fill-rule:evenodd;stroke:none"
            d="m 1375.66,1052.58 c 0,-0.35 0,-0.51 0,-0.51 2,-3.98 3.99,-8.16 6.02,-12.5 0.31,-0.35 0.66,-0.82 0.98,-1.48 2.34,-4.03 4.84,-8.01 7.5,-12.04 0.35,-0.66 0.86,-1.32 1.52,-1.99 0.66,-0.66 1.33,-1.48 1.99,-2.5 105.98,90.35 208.48,170.35 307.5,240 -13.67,4.03 -28.36,7.5 -44.02,10.51 -92.31,-65.66 -186.13,-138.83 -281.49,-219.49"/><path
            id="path32"
            style="fill:#72bce5;fill-opacity:1;fill-rule:evenodd;stroke:none"
            d="m 2416.17,1569.57 c -43.36,35 -119.69,33.98 -229.02,-3.01 -109.34,-36.64 -238.17,-102.34 -386.49,-196.99 13.01,-5.35 25.16,-10.82 36.49,-16.48 148.01,92.96 265.35,147.96 352.03,165 89.34,25.97 152.3,23.98 188.98,-6.02 47,-47.34 32.86,-136.68 -42.5,-268.01 -75.35,-131.33 -196.48,-281.638 -363.51,-450.97 181.37,182.301 313.36,344.49 396.01,486.48 82.35,142.34 98.32,238.98 48.01,290"/><path
            id="path34"
            style="fill:#8dc641;fill-opacity:1;fill-rule:evenodd;stroke:none"
            d="m 1611.17,355.078 c -1.01,-0.348 -1.99,-0.668 -3.01,-1.019 1.02,0.351 2,0.671 3.01,1.019"/><path
            id="path36"
            style="fill:#8dc641;fill-opacity:1;fill-rule:evenodd;stroke:none"
            d="m 1477.15,953.09 c 2.03,-1.371 4.18,-2.5 6.52,-3.52 -2.34,1.02 -4.49,2.149 -6.52,3.52"/><path
            id="path38"
            style="fill:#8dc641;fill-opacity:1;fill-rule:evenodd;stroke:none"
            d="m 1552.15,339.57 c -5,-0.66 -10,-1.172 -15,-1.48 5,0.308 10,0.82 15,1.48"/><path
            id="path40"
            style="fill:#8dc641;fill-opacity:1;fill-rule:evenodd;stroke:none"
            d="m 1528.16,337.07 c -8,-0.66 -16.32,-1.019 -25,-1.019 8.68,0 17,0.359 25,1.019"/><path
            id="path42"
            style="fill:#8dc641;fill-opacity:1;fill-rule:evenodd;stroke:none"
            d="m 1633.16,339.059 c -36.32,-18.668 -79.64,-28.161 -130,-28.469 -31.68,0 -62.5,2.961 -92.5,8.98 -36.99,-26.019 -73.32,-50.511 -108.98,-73.519 -1.02,-0.66 -1.84,-1.321 -2.5,-1.992 -3.67,-1.989 -7.19,-4.137 -10.51,-6.477 58.32,-20 120.82,-31.023 187.5,-33.012 V 9.57031 h 121.49 V 210.59 c 56.32,9.64 105,26.992 146.01,51.992 -33.01,21.988 -66.68,45.148 -101.01,69.488 -3.32,2.34 -6.49,4.649 -9.5,6.989"/><path
            id="path44"
            style="fill:#8dc641;fill-opacity:1;fill-rule:evenodd;stroke:none"
            d="m 1458.16,964.57 c 1.68,-1.019 3.32,-1.992 5,-3.011 -1.68,1.019 -3.32,1.992 -5,3.011"/><path
            id="path46"
            style="fill:#8dc641;fill-opacity:1;fill-rule:evenodd;stroke:none"
            d="m 1440.66,976.559 c 1.33,-0.969 2.66,-1.989 3.99,-3.008 -1.33,1.019 -2.66,2.039 -3.99,3.008"/><path
            id="path48"
            style="fill:#8dc641;fill-opacity:1;fill-rule:evenodd;stroke:none"
            d="m 1498.67,941.051 c 2.66,-1.321 5.31,-2.653 8.01,-3.981 -2.7,1.328 -5.35,2.66 -8.01,3.981"/><path
            id="path50"
            style="fill:#8dc641;fill-opacity:1;fill-rule:evenodd;stroke:none"
            d="m 1199.65,311.559 c 26.01,16.679 52.5,34.179 79.53,52.5 -18.36,9.339 -35,19.179 -50,29.492 l -29.53,-81.992"/><path
            id="path52"
            style="fill:#8dc641;fill-opacity:1;fill-rule:evenodd;stroke:none"
            d="m 1414.18,998.09 c -0.66,0.969 -1.52,1.832 -2.5,2.5 0.98,-0.668 1.84,-1.531 2.5,-2.5"/><path
            id="path54"
            style="fill:#8dc641;fill-opacity:1;fill-rule:evenodd;stroke:none"
            d="m 1781.17,768.09 c -46.01,36.32 -105.15,69.14 -177.5,98.469 -163.67,59.691 -243.51,133.011 -239.49,220.001 0,4.34 0.16,8.67 0.47,13.01 -0.31,3.98 -0.47,8.16 -0.47,12.5 -0.66,41.68 14.8,79.49 46.48,113.52 32,34.33 84.65,52.5 158.01,54.49 122.66,-11.02 203.83,-33.52 243.48,-67.5 l 40,105.97 c -53.32,35 -134.34,56.02 -242.97,63.01 v 187.5 h -121.52 v -193.01 c -178.68,-36.64 -275,-135.97 -288.99,-297.96 -0.35,4.33 -0.51,8.47 -0.51,12.5 7.66,-157.352 113.83,-269.18 318.52,-335.512 65.31,-26.019 116.13,-55.156 152.5,-87.5 4.65,3.672 9.14,7.5 13.48,11.481 34.02,30 66.83,59.691 98.51,89.031"/><path
            id="path56"
            style="fill:#8dc641;fill-opacity:1;fill-rule:evenodd;stroke:none"
            d="m 1574.65,344.059 c -3.99,-0.969 -7.97,-1.829 -11.99,-2.5 4.02,1.019 8,1.839 11.99,2.5"/><path
            id="path58"
            style="fill:#8dc641;fill-opacity:1;fill-rule:evenodd;stroke:none"
            d="m 1381.68,1040.08 c 0.31,-0.67 0.66,-1.33 0.98,-1.99 -0.32,0.66 -0.67,1.32 -0.98,1.99"/><path
            id="path60"
            style="fill:#8dc641;fill-opacity:1;fill-rule:evenodd;stroke:none"
            d="m 1546.68,917.578 c 5,-2.348 10,-4.687 15,-6.988 -5,2.301 -10,4.64 -15,6.988"/><path
            id="path62"
            style="fill:#8dc641;fill-opacity:1;fill-rule:evenodd;stroke:none"
            d="m 1574.18,905.078 c 9.65,-4.34 19.49,-8.668 29.49,-13.008 -10,4.34 -19.84,8.668 -29.49,13.008"/><path
            id="path64"
            style="fill:#8dc641;fill-opacity:1;fill-rule:evenodd;stroke:none"
            d="m 1596.17,349.57 c -3.36,-1.019 -6.68,-1.992 -10,-3.011 3.32,1.019 6.64,1.992 10,3.011"/><path
            id="path66"
            style="fill:#8dc641;fill-opacity:1;fill-rule:evenodd;stroke:none"
            d="m 1521.68,929.57 c 3.32,-1.679 6.84,-3.32 10.47,-5 -3.32,1.68 -6.84,3.321 -10.47,5"/><path
            id="path68"
            style="fill:#8dc641;fill-opacity:1;fill-rule:evenodd;stroke:none"
            d="m 1714.65,442.578 c 0,-0.348 -0.16,-0.668 -0.47,-1.019 0.31,0.351 0.47,0.671 0.47,1.019"/><path
            id="path70"
            style="fill:#8dc641;fill-opacity:1;fill-rule:evenodd;stroke:none"
            d="m 1370.16,1068.55 c 0,-0.31 0.15,-0.66 0.5,-0.97 -0.35,0.31 -0.5,0.66 -0.5,0.97"/><path
            id="path72"
            style="fill:#8dc641;fill-opacity:1;fill-rule:evenodd;stroke:none"
            d="m 1704.18,425.59 c 0.31,0.66 0.66,1.129 0.98,1.48 -0.32,-0.351 -0.67,-0.82 -0.98,-1.48"/><path
            id="path74"
            style="fill:#8dc641;fill-opacity:1;fill-rule:evenodd;stroke:none"
            d="m 1858.67,683.551 c -29.02,-26.641 -58.67,-53.321 -89.02,-80 -13.32,-11.641 -26.49,-23.16 -39.49,-34.492 3.36,-13.668 5,-28.161 5,-43.469 0,-4.031 -0.16,-8.012 -0.51,-12.039 -0.31,0 -0.31,0 0,0 0.35,-4.332 0.51,-8.821 0.51,-13.473 -0.32,-30.348 -7,-57.656 -20,-81.988 39.68,-28.68 78.36,-55.512 116.01,-80.508 47.66,59.648 71.64,127.496 71.99,203.469 -0.35,-4.332 -0.5,-8.321 -0.5,-11.992 -2,59.339 -16.64,110.863 -43.99,154.492"/><path
            id="path76"
            style="fill:#8dc641;fill-opacity:1;fill-rule:evenodd;stroke:none"
            d="m 1400.16,1013.55 c 0.66,-0.66 1.32,-1.48 1.99,-2.5 -0.67,1.02 -1.33,1.84 -1.99,2.5"/><path
            id="path78"
            style="fill:#8dc641;fill-opacity:1;fill-rule:evenodd;stroke:none"
            d="m 1390.16,1026.56 c 0.35,-0.66 0.86,-1.33 1.52,-1.99 -0.66,0.66 -1.17,1.33 -1.52,1.99"/><path
            id="path80"
            style="fill:#8dc641;fill-opacity:1;fill-rule:evenodd;stroke:none"
            d="m 1425.16,988.551 c 1.01,-0.973 2.18,-1.832 3.51,-2.5 -1.33,0.668 -2.5,1.527 -3.51,2.5"/><path
            id="path82"
            style="fill:#8dc641;fill-opacity:1;fill-rule:evenodd;stroke:none"
            d="m 1375.16,1054.06 c 0.35,-0.66 0.5,-1.17 0.5,-1.48 0,0.31 -0.15,0.82 -0.5,1.48"/><path
            id="path84"
            style="fill:#8dc641;fill-opacity:1;fill-rule:evenodd;stroke:none"
            d="m 1722.66,459.059 c -0.32,-0.309 -0.51,-0.661 -0.51,-0.969 0,0.308 0.19,0.66 0.51,0.969"/><path
            id="path86"
            style="fill:#beda77;fill-opacity:1;fill-rule:evenodd;stroke:none"
            d="m 1487.66,1569.57 h 121.52 v 25.5117 h -121.52 z"/><path
            id="path88"
            style="fill:#beda77;fill-opacity:1;fill-rule:evenodd;stroke:none"
            d="m 1852.66,1319.06 c 0,-0.31 0,-0.31 0,0 l 8,21.02 c -53.67,36.99 -137.34,59.49 -251.01,67.5 v -25.51 c 108.67,-7.34 189.69,-28.32 243.01,-63.01"/><path
            id="path90"
            style="fill:#beda77;fill-opacity:1;fill-rule:evenodd;stroke:none"
            d="m 1902.15,528.551 c 0.35,4.027 0.51,8.008 0.51,12.039 0,57.961 -11.49,108.629 -34.5,151.988 -3.32,-3.008 -6.68,-6.019 -10,-9.027 27.35,-43.981 42,-95.66 43.99,-155"/><path
            id="path92"
            style="fill:#beda77;fill-opacity:1;fill-rule:evenodd;stroke:none"
            d="m 1603.67,866.559 c 72.35,-29.329 131.49,-62.149 177.5,-98.469 5,4.64 9.85,9.332 14.49,13.98 -48,41.02 -111.99,77.66 -191.99,110 -10.35,4.34 -20.15,8.52 -29.49,12.5 -4.34,1.989 -8.52,3.828 -12.5,5.508 -5,2.344 -10,4.652 -15,6.992 -5,2.34 -9.84,4.649 -14.53,6.989 -3.63,1.679 -7.15,3.363 -10.47,5 -5.35,2.66 -10.51,5.351 -15.51,8.011 -2.65,1.328 -5.35,2.66 -8.01,3.981 -5,2.699 -10,5.359 -15,8.008 -1.99,1.332 -3.98,2.5 -6.01,3.519 -5,3.012 -9.65,5.973 -13.99,8.981 -1.99,1.019 -3.82,1.992 -5.5,3.011 -4.34,3.008 -8.68,6.02 -13.01,8.981 -1.33,1.019 -2.66,2.039 -3.99,3.008 -4.33,3.011 -8.32,6.019 -11.99,9.031 -1.33,0.969 -2.5,1.988 -3.51,2.961 -3.99,3.008 -7.66,6.179 -10.98,9.539 -1.02,0.969 -1.84,1.832 -2.5,2.5 -3.67,3.32 -7.03,6.83 -10,10.46 -0.66,0.67 -1.37,1.37 -2.03,2.04 -2.97,3.63 -5.82,7.3 -8.48,10.97 -0.35,0.67 -0.86,1.33 -1.52,1.99 -2.66,4.03 -5,7.86 -6.99,11.53 -0.32,0.66 -0.67,1.33 -0.98,1.99 -2.34,3.98 -4.34,8.16 -6.02,12.5 -0.35,0.66 -0.66,1.17 -1.01,1.48 -1.64,4.34 -3.17,8.87 -4.49,13.52 0,0.35 0,0.66 0,1.02 -1.33,5 -2.5,10 -3.48,15 0,0 0,0.15 0,0.46 -1.02,5.36 -1.68,10.67 -2.03,16.02 -0.31,-4.34 -0.47,-8.67 -0.47,-13.01 -4.34,-86.99 75.47,-160.31 239.49,-220.001"/><path
            id="path94"
            style="fill:#beda77;fill-opacity:1;fill-rule:evenodd;stroke:none"
            d="m 1487.66,1376.05 v 25.51 c -184.34,-38.01 -280.82,-141.64 -289.5,-310.97 0,-4.03 0.16,-8.17 0.51,-12.5 13.99,161.99 110.31,261.32 288.99,297.96"/><path
            id="path96"
            style="fill:#beda77;fill-opacity:1;fill-rule:evenodd;stroke:none"
            d="m 1633.16,339.059 c -7.34,5.351 -14.64,10.671 -21.99,16.019 -1.01,-0.348 -1.99,-0.668 -3.01,-1.019 -3.67,-1.637 -7.5,-3.161 -11.48,-4.489 -3.36,-0.66 -6.68,-1.48 -10,-2.5 -4.02,-1.019 -7.85,-1.992 -11.52,-3.011 -3.99,-0.969 -8.01,-1.829 -12,-2.5 -3.67,-0.661 -7.14,-1.329 -10.5,-1.989 -5,-0.66 -10.16,-1.172 -15.51,-1.48 -2.66,-0.36 -5.47,-0.668 -8.48,-1.02 -8.36,-0.66 -16.68,-1.019 -25,-1.019 -21.68,0 -42.85,1.531 -63.51,4.539 -10,-7.039 -19.85,-14.031 -29.5,-21.02 30,-5.66 61.02,-8.672 93.01,-8.98 50.31,0.308 93.48,9.801 129.49,28.469"/><path
            id="path98"
            style="fill:#beda77;fill-opacity:1;fill-rule:evenodd;stroke:none"
            d="m 1734.18,513.551 c -0.35,-6.641 -1.02,-12.961 -2.03,-18.981 0,0 0,-0.16 0,-0.511 -0.98,-5.969 -2.31,-11.829 -3.99,-17.5 0,-0.309 -0.15,-0.508 -0.5,-0.508 -1.33,-5.973 -3.17,-11.641 -5.51,-16.992 0,-0.309 -0.16,-0.661 -0.47,-0.969 -2.03,-5.36 -4.34,-10.512 -7.03,-15.512 -0.31,-0.348 -0.67,-0.668 -0.98,-1.019 -2.34,-5 -5.15,-9.84 -8.51,-14.489 -0.32,-0.351 -0.67,-0.82 -0.98,-1.48 3.63,-2.699 7.3,-5.36 10.98,-8.012 13,24.652 19.49,51.992 19.49,81.992 0,5 -0.16,9.649 -0.47,13.981"/><path
            id="path100"
            style="fill:#beda77;fill-opacity:1;fill-rule:evenodd;stroke:none"
            d="m 1229.18,393.551 c 15.31,-10.313 32.15,-20.153 50.47,-29.492 7.03,5 14.33,10 22.03,15 -27.03,11.992 -51.17,25.351 -72.5,40 l -41.02,-115 c 3.99,2.66 8.01,5.16 12,7.5 l 29.02,81.992"/><path
            id="path102"
            style="fill:#002a46;fill-opacity:1;fill-rule:nonzero;stroke:none"
            d="m 310.898,1258.71 10,32.5 88.442,-27.03 -45,-146.72 c -8.129,-26.8 -23.602,-39.8 -46.41,-39.06 -6.641,0 -13.481,1.01 -20.469,3.12 L 41.6797,1159.8 c -23.3203,7.19 -36.44923,20.04 -39.37892,38.6 -1.320311,7.07 -0.66015,15.08 2.03906,24.06 l 46.39846,151.41 88.4417,-27.03 -10,-32.5 -55.7816,17.18 -38.75,-126.72 293.4416,-89.84 38.75,126.72 z"/><path
            id="path104"
            style="fill:#002a46;fill-opacity:1;fill-rule:nonzero;stroke:none"
            d="m 281.801,1558.83 c 12.418,22.81 29.84,28.05 52.34,15.78 l 39.058,-21.41 -19.371,-35.47 -42.5,23.29 6.094,-92.35 115.777,-63.12 11.723,21.56 29.848,-16.41 -46.411,-84.84 -29.839,16.41 15.152,27.81 -160.152,87.5 -15.161,-27.81 -29.687,16.25 34.687,63.28 38.442,-21.1 -4.379,72.35 c -0.313,6.33 1.168,12.42 4.379,18.28 z"/><path
            id="path106"
            style="fill:#002a46;fill-opacity:1;fill-rule:nonzero;stroke:none"
            d="m 480,1821.05 242.5,-203.43 c 10.699,-8.99 16.719,-18.4 17.969,-28.28 1.25,-9.93 -3.59,-21.37 -14.528,-34.38 l -74.222,-88.59 -52.028,43.59 21.868,26.09 25.632,-21.4 55.618,66.25 -100.778,84.53 -15,-102.66 c -1.25,-8.86 -4.332,-16.21 -9.222,-22.03 -4.918,-5.86 -11.168,-9.29 -18.75,-10.31 -7.61,-1.05 -15.778,2.07 -24.528,9.37 l -144.371,121.1 -20.629,-24.53 -26.09,21.87 46.559,55.63 165.16,-138.44 16.09,116.41 -91.09,76.4 -15.781,-18.9 -26.098,21.87 z"/><path
            id="path108"
            style="fill:#002a46;fill-opacity:1;fill-rule:nonzero;stroke:none"
            d="m 740.27,1764.57 83.601,65 -113.75,146.56 -42.66,-117.65 z m 19.691,-142.97 24.687,19.06 -187.968,242.04 -25,-19.22 -21.09,27.34 57.34,44.38 35,-45.16 34.84,96.25 c 3.128,8.75 8.25,15.86 15.32,21.41 7.18,5.62 15.148,8.32 23.898,8.12 8.75,-0.23 16.41,-4.49 22.973,-12.81 l 107.5,-138.6 c 9.449,-12.11 14.258,-21.71 14.379,-28.9 -0.238,-13.24 -7.192,-25.24 -20.942,-35.94 l -79.687,-61.87 55.777,-71.88 25.942,20.16 20.941,-26.88 -82.973,-64.37 z"/><path
            id="path110"
            style="fill:#002a46;fill-opacity:1;fill-rule:nonzero;stroke:none"
            d="m 825.039,2185.39 42.5,-80.47 35.941,19.06 16.719,-31.71 -35.937,-19.07 83.898,-159.22 42.04,22.19 15.93,-30.15 -37.028,-19.54 c -13.243,-6.99 -24.961,-8.75 -35.153,-5.31 -10.121,3.52 -19.609,13.75 -28.437,30.63 l -75.633,143.28 -32.809,-17.19 -16.718,31.72 32.808,17.19 -42.5,80.47 z"/><path
            id="path112"
            style="fill:#002a46;fill-opacity:1;fill-rule:nonzero;stroke:none"
            d="m 1101.64,1936.88 c -16.25,-5.43 -28.98,-5.59 -38.12,-0.47 -9.07,5.19 -15.86,14.45 -20.32,27.81 l -51.399,152.5 c -4.262,12.58 -4.77,23.75 -1.571,33.44 3.25,9.76 13.75,17.65 31.57,23.59 l 87.65,29.53 c 17.27,5.82 30.2,5.86 38.75,0.16 8.64,-5.74 15.08,-14.92 19.38,-27.5 l 51.4,-152.5 c 4.46,-13.36 4.61,-24.85 0.47,-34.53 -4.06,-9.61 -14.14,-17.11 -30.15,-22.5 z m -16.72,30.46 99.06,33.28 -58.12,172.35 -99.06,-33.28 z"/><path
            id="path114"
            style="fill:#002a46;fill-opacity:1;fill-rule:nonzero;stroke:none"
            d="m 1538.36,2048.71 32.5,0.31 0.31,-34.06 -105,-0.94 -0.31,34.07 31.56,0.31 -3.12,306.87 -31.57,-0.31 -0.31,34.06 105,0.94 0.31,-34.06 -32.5,-0.31 z"/><path
            id="path116"
            style="fill:#002a46;fill-opacity:1;fill-rule:nonzero;stroke:none"
            d="m 1848.12,2235.9 c 25.63,-4.81 36.1,-19.81 31.41,-45 l -33.28,-179.53 31.56,-5.78 -6.25,-33.44 -95,17.65 6.25,33.44 23.6,-4.53 33.9,182.81 -109.22,-43.12 -22.5,-121.41 24.07,-4.53 -6.25,-33.44 -94.85,17.66 6.25,33.44 30.94,-5.78 33.28,179.53 -30.94,5.78 6.1,32.81 70.78,-13.12 -9.53,-51.1 91.09,35.94 c 5.82,2.27 12.03,2.85 18.59,1.72 z"/><path
            id="path118"
            style="fill:#002a46;fill-opacity:1;fill-rule:nonzero;stroke:none"
            d="m 2085.08,2155.39 -13.6,-31.25 -22.5,9.84 -26.4,-186.87 119.06,146.72 -22.34,9.69 13.59,31.25 84.84,-36.88 -13.59,-31.25 -27.5,12.03 -141.56,-174.06 -50.94,22.03 30,222.34 -27.03,11.88 13.59,31.25 z"/><path
            id="path120"
            style="fill:#002a46;fill-opacity:1;fill-rule:nonzero;stroke:none"
            d="m 2262.7,2013.12 c 18.82,27.19 42.38,30.94 70.62,11.26 l 69.22,-48.13 c 13.44,-9.37 21.33,-18.83 23.75,-28.28 2.5,-9.38 -1.17,-21.06 -10.94,-35 l -26.56,-38.13 -168.44,7.5 -20.15,-29.06 84.53,-58.75 16.4,23.75 32.5,-22.66 -15,-21.71 c -5.74,-8.21 -13.2,-13.48 -22.34,-15.79 -9.18,-2.38 -19.65,0.55 -31.41,8.76 l -84.22,58.43 c -11.79,8.24 -18.12,17.11 -19.06,26.57 -0.94,9.37 1.45,18.16 7.19,26.4 z m -19.22,-97.5 121.09,-5.46 23.75,33.9 -84.22,58.44 z"/><path
            id="path122"
            style="fill:#002a46;fill-opacity:1;fill-rule:nonzero;stroke:none"
            d="m 2470.55,1636.05 c -20.86,-20.7 -41.41,-20.93 -61.72,-0.62 l -85.47,85.62 53.44,53.29 24.06,-24.07 -29.38,-29.22 63.6,-63.75 29.37,29.22 -21.56,94.69 c -2.19,9.57 -4.22,17.66 -6.09,24.22 -1.8,6.64 -2.93,12.54 -3.44,17.66 -0.43,10 3.36,18.98 11.41,27.03 l 20,20 c 10,10 18.51,15.19 25.62,15.62 13.63,0.94 26.72,-4.84 39.22,-17.34 l 82.19,-82.35 -53.13,-53.12 -23.9,23.91 29.06,29.06 -63.6,63.75 -29.68,-29.69 22.5,-97.66 c 1.95,-8 3.75,-15.07 5.31,-21.25 1.64,-6.13 2.58,-11.64 2.81,-16.56 0.94,-10.82 -1.99,-19.69 -8.75,-26.56 z"/><path
            id="path124"
            style="fill:#002a46;fill-opacity:1;fill-rule:nonzero;stroke:none"
            d="m 2787.42,1710.04 -73.28,-53.75 24.06,-32.81 -29.06,-21.25 -24.06,32.81 -145,-106.56 28.12,-38.28 -27.5,-20.16 -24.68,33.75 c -8.99,12.11 -12.47,23.44 -10.47,34.06 1.95,10.55 10.62,21.41 25.93,32.66 l 130.63,95.94 -21.88,29.84 29.07,21.25 21.87,-29.84 73.28,53.75 z"/><path
            id="path126"
            style="fill:#002a46;fill-opacity:1;fill-rule:nonzero;stroke:none"
            d="m 2582.3,1399.96 c -7.73,15.24 -9.76,27.74 -6.09,37.5 3.75,9.69 11.91,17.77 24.53,24.22 l 143.13,73.44 c 11.87,6.13 22.85,8.32 32.97,6.56 10.07,-1.8 19.41,-11.02 27.96,-27.66 l 42.35,-82.34 c 8.32,-16.25 10.23,-28.98 5.78,-38.28 -4.38,-9.38 -12.5,-17.11 -24.38,-23.28 l -143.12,-73.44 c -12.62,-6.45 -23.98,-8.32 -34.06,-5.63 -10.12,2.62 -19.03,11.49 -26.72,26.57 z m 27.66,20.94 47.66,-93.13 161.87,83.13 -47.65,93.12 z"/><path
            id="path128"
            style="fill:#002a46;fill-opacity:1;fill-rule:nonzero;stroke:none"
            d="m 2943.4,1163.24 c 7.26,-24.88 -1.37,-40.94 -25.94,-48.12 l -42.81,-12.5 -11.41,38.75 46.56,13.59 -69.21,61.09 -126.72,-36.87 6.87,-23.59 -32.65,-9.54 -27.04,92.66 32.66,9.53 8.75,-30.31 175.31,51.09 -8.75,30.32 32.5,9.37 20.16,-69.06 -42.19,-12.19 54.06,-48.28 c 4.69,-4.26 7.97,-9.57 9.85,-15.94 z"/></g></g></svg>